<svg width="25" height="25" viewBox="0 0 25 25" fill="none" xmlns="http://www.w3.org/2000/svg">
<path d="M21.71 16.87C21.0738 18.3745 20.0788 19.7003 18.8119 20.7313C17.545 21.7624 16.0448 22.4675 14.4424 22.7848C12.8401 23.1022 11.1844 23.0222 9.62015 22.5518C8.05587 22.0815 6.63062 21.2351 5.46902 20.0867C4.30741 18.9383 3.44481 17.5228 2.95663 15.964C2.46845 14.4052 2.36956 12.7505 2.6686 11.1447C2.96763 9.53882 3.65549 8.03067 4.67204 6.75207C5.68859 5.47347 7.00288 4.46336 8.5 3.81004" stroke="white" stroke-width="2" stroke-linecap="round" stroke-linejoin="round"/>
<path d="M22.5 12.98C22.5 11.6668 22.2413 10.3665 21.7388 9.15321C21.2362 7.93995 20.4997 6.83756 19.5711 5.90897C18.6425 4.98039 17.5401 4.24379 16.3268 3.74125C15.1136 3.2387 13.8132 2.98004 12.5 2.98004V12.98H22.5Z" stroke="white" stroke-width="2" stroke-linecap="round" stroke-linejoin="round"/>
</svg>
