<svg width="25" height="25" viewBox="0 0 25 25" fill="none" xmlns="http://www.w3.org/2000/svg">
<path d="M18.5 8.98004C18.5 7.38874 17.8679 5.86262 16.7426 4.7374C15.6174 3.61218 14.0913 2.98004 12.5 2.98004C10.9087 2.98004 9.38258 3.61218 8.25736 4.7374C7.13214 5.86262 6.5 7.38874 6.5 8.98004C6.5 15.98 3.5 17.98 3.5 17.98H21.5C21.5 17.98 18.5 15.98 18.5 8.98004Z" stroke="white" stroke-width="2" stroke-linecap="round" stroke-linejoin="round"/>
<path d="M14.23 21.98C14.0542 22.2831 13.8018 22.5347 13.4982 22.7096C13.1946 22.8845 12.8504 22.9765 12.5 22.9765C12.1496 22.9765 11.8054 22.8845 11.5018 22.7096C11.1982 22.5347 10.9458 22.2831 10.77 21.98" stroke="white" stroke-width="2" stroke-linecap="round" stroke-linejoin="round"/>
</svg>
