<svg width="25" height="25" viewBox="0 0 25 25" fill="none" xmlns="http://www.w3.org/2000/svg">
<path d="M14.5 2.98004H6.5C5.96957 2.98004 5.46086 3.19076 5.08579 3.56583C4.71071 3.9409 4.5 4.44961 4.5 4.98004V20.98C4.5 21.5105 4.71071 22.0192 5.08579 22.3943C5.46086 22.7693 5.96957 22.98 6.5 22.98H18.5C19.0304 22.98 19.5391 22.7693 19.9142 22.3943C20.2893 22.0192 20.5 21.5105 20.5 20.98V8.98004L14.5 2.98004Z" stroke="white" stroke-width="2" stroke-linecap="round" stroke-linejoin="round"/>
<path d="M16.5 17.98H8.5" stroke="white" stroke-width="2" stroke-linecap="round" stroke-linejoin="round"/>
<path d="M16.5 13.98H8.5" stroke="white" stroke-width="2" stroke-linecap="round" stroke-linejoin="round"/>
<path d="M10.5 9.98004H9.5H8.5" stroke="white" stroke-width="2" stroke-linecap="round" stroke-linejoin="round"/>
<path d="M14.5 2.98004V8.98004H20.5" stroke="white" stroke-width="2" stroke-linecap="round" stroke-linejoin="round"/>
</svg>
