<svg width="25" height="25" viewBox="0 0 25 25" fill="none" xmlns="http://www.w3.org/2000/svg">
<g clip-path="url(#clip0_267_203)">
<path d="M12.5 15.98C14.1569 15.98 15.5 14.6369 15.5 12.98C15.5 11.3232 14.1569 9.98004 12.5 9.98004C10.8431 9.98004 9.5 11.3232 9.5 12.98C9.5 14.6369 10.8431 15.98 12.5 15.98Z" stroke="white" stroke-width="2" stroke-linecap="round" stroke-linejoin="round"/>
<path d="M19.9 15.98C19.7669 16.2817 19.7272 16.6162 19.786 16.9406C19.8448 17.265 19.9995 17.5644 20.23 17.8L20.29 17.86C20.476 18.0458 20.6235 18.2664 20.7241 18.5092C20.8248 18.752 20.8766 19.0122 20.8766 19.275C20.8766 19.5379 20.8248 19.7981 20.7241 20.0409C20.6235 20.2837 20.476 20.5043 20.29 20.69C20.1043 20.876 19.8837 21.0235 19.6409 21.1242C19.3981 21.2248 19.1378 21.2766 18.875 21.2766C18.6122 21.2766 18.3519 21.2248 18.1091 21.1242C17.8663 21.0235 17.6457 20.876 17.46 20.69L17.4 20.63C17.1643 20.3995 16.865 20.2449 16.5406 20.186C16.2162 20.1272 15.8816 20.1669 15.58 20.3C15.2842 20.4268 15.032 20.6373 14.8543 20.9056C14.6766 21.1739 14.5813 21.4883 14.58 21.81V21.98C14.58 22.5105 14.3693 23.0192 13.9942 23.3943C13.6191 23.7693 13.1104 23.98 12.58 23.98C12.0496 23.98 11.5409 23.7693 11.1658 23.3943C10.7907 23.0192 10.58 22.5105 10.58 21.98V21.89C10.5723 21.559 10.4651 21.238 10.2725 20.9687C10.0799 20.6994 9.81074 20.4943 9.5 20.38C9.19838 20.2469 8.86381 20.2072 8.53941 20.266C8.21502 20.3249 7.91568 20.4795 7.68 20.71L7.62 20.77C7.43425 20.956 7.21368 21.1035 6.97088 21.2042C6.72808 21.3048 6.46783 21.3566 6.205 21.3566C5.94217 21.3566 5.68192 21.3048 5.43912 21.2042C5.19632 21.1035 4.97575 20.956 4.79 20.77C4.60405 20.5843 4.45653 20.3637 4.35588 20.1209C4.25523 19.8781 4.20343 19.6179 4.20343 19.355C4.20343 19.0922 4.25523 18.832 4.35588 18.5892C4.45653 18.3464 4.60405 18.1258 4.79 17.94L4.85 17.88C5.08054 17.6444 5.23519 17.345 5.294 17.0206C5.35282 16.6962 5.31312 16.3617 5.18 16.06C5.05324 15.7643 4.84276 15.512 4.57447 15.3343C4.30618 15.1567 3.99179 15.0613 3.67 15.06H3.5C2.96957 15.06 2.46086 14.8493 2.08579 14.4743C1.71071 14.0992 1.5 13.5905 1.5 13.06C1.5 12.5296 1.71071 12.0209 2.08579 11.6458C2.46086 11.2708 2.96957 11.06 3.5 11.06H3.59C3.92099 11.0523 4.242 10.9452 4.5113 10.7526C4.78059 10.5599 4.98572 10.2908 5.1 9.98004C5.23312 9.67843 5.27282 9.34385 5.214 9.01945C5.15519 8.69506 5.00054 8.39572 4.77 8.16004L4.71 8.10004C4.52405 7.9143 4.37653 7.69372 4.27588 7.45092C4.17523 7.20813 4.12343 6.94787 4.12343 6.68504C4.12343 6.42221 4.17523 6.16196 4.27588 5.91916C4.37653 5.67636 4.52405 5.45579 4.71 5.27004C4.89575 5.08409 5.11632 4.93657 5.35912 4.83592C5.60192 4.73527 5.86217 4.68347 6.125 4.68347C6.38783 4.68347 6.64808 4.73527 6.89088 4.83592C7.13368 4.93657 7.35425 5.08409 7.54 5.27004L7.6 5.33004C7.83568 5.56058 8.13502 5.71523 8.45941 5.77405C8.78381 5.83286 9.11838 5.79316 9.42 5.66004H9.5C9.79577 5.53328 10.048 5.3228 10.2257 5.05451C10.4034 4.78622 10.4987 4.47183 10.5 4.15004V3.98004C10.5 3.44961 10.7107 2.9409 11.0858 2.56583C11.4609 2.19076 11.9696 1.98004 12.5 1.98004C13.0304 1.98004 13.5391 2.19076 13.9142 2.56583C14.2893 2.9409 14.5 3.44961 14.5 3.98004V4.07004C14.5013 4.39183 14.5966 4.70622 14.7743 4.97451C14.952 5.2428 15.2042 5.45328 15.5 5.58004C15.8016 5.71316 16.1362 5.75286 16.4606 5.69405C16.785 5.63523 17.0843 5.48058 17.32 5.25004L17.38 5.19004C17.5657 5.00409 17.7863 4.85657 18.0291 4.75592C18.2719 4.65527 18.5322 4.60347 18.795 4.60347C19.0578 4.60347 19.3181 4.65527 19.5609 4.75592C19.8037 4.85657 20.0243 5.00409 20.21 5.19004C20.396 5.37579 20.5435 5.59636 20.6441 5.83916C20.7448 6.08196 20.7966 6.34221 20.7966 6.60504C20.7966 6.86787 20.7448 7.12813 20.6441 7.37092C20.5435 7.61372 20.396 7.8343 20.21 8.02004L20.15 8.08004C19.9195 8.31572 19.7648 8.61506 19.706 8.93945C19.6472 9.26385 19.6869 9.59843 19.82 9.90004V9.98004C19.9468 10.2758 20.1572 10.5281 20.4255 10.7057C20.6938 10.8834 21.0082 10.9788 21.33 10.98H21.5C22.0304 10.98 22.5391 11.1908 22.9142 11.5658C23.2893 11.9409 23.5 12.4496 23.5 12.98C23.5 13.5105 23.2893 14.0192 22.9142 14.3943C22.5391 14.7693 22.0304 14.98 21.5 14.98H21.41C21.0882 14.9813 20.7738 15.0767 20.5055 15.2543C20.2372 15.432 20.0268 15.6843 19.9 15.98V15.98Z" stroke="white" stroke-width="2" stroke-linecap="round" stroke-linejoin="round"/>
</g>
<defs>
<clipPath id="clip0_267_203">
<rect width="24" height="24" fill="white" transform="translate(0.5 0.980042)"/>
</clipPath>
</defs>
</svg>
